<?xml version="1.0" encoding="UTF-8" standalone="no"?>
<!-- Created with Inkscape (http://www.inkscape.org/) -->

<svg
   xmlns:dc="http://purl.org/dc/elements/1.1/"
   xmlns:cc="http://creativecommons.org/ns#"
   xmlns:rdf="http://www.w3.org/1999/02/22-rdf-syntax-ns#"
   xmlns:svg="http://www.w3.org/2000/svg"
   xmlns="http://www.w3.org/2000/svg"
   xmlns:sodipodi="http://sodipodi.sourceforge.net/DTD/sodipodi-0.dtd"
   xmlns:inkscape="http://www.inkscape.org/namespaces/inkscape"
   width="48"
   height="48"
   viewBox="0 0 48 48.000002"
   version="1.1"
   id="svg8"
   inkscape:version="0.92.1 r"
   sodipodi:docname="g4quicksilver-frame.svg">
  <defs
     id="defs2" />
  <sodipodi:namedview
     id="base"
     pagecolor="#ffffff"
     bordercolor="#666666"
     borderopacity="1.0"
     inkscape:pageopacity="0.0"
     inkscape:pageshadow="2"
     inkscape:zoom="8"
     inkscape:cx="15.927959"
     inkscape:cy="20.623015"
     inkscape:document-units="px"
     inkscape:current-layer="layer2"
     showgrid="false"
     units="px"
     inkscape:window-width="1680"
     inkscape:window-height="981"
     inkscape:window-x="1280"
     inkscape:window-y="27"
     inkscape:window-maximized="1"
     inkscape:snap-global="false">
    <inkscape:grid
       type="xygrid"
       id="grid5101" />
  </sodipodi:namedview>
  <metadata
     id="metadata5">
    <rdf:RDF>
      <cc:Work
         rdf:about="">
        <dc:format>image/svg+xml</dc:format>
        <dc:type
           rdf:resource="http://purl.org/dc/dcmitype/StillImage" />
        <dc:title />
      </cc:Work>
    </rdf:RDF>
  </metadata>
  <g
     inkscape:groupmode="layer"
     id="layer2"
     inkscape:label="Layer 2"
     style="display:inline">
    <path
       id="path5103"
       style="fill:none;stroke:#000000;stroke-width:1;stroke-linecap:butt;stroke-linejoin:round;stroke-miterlimit:4;stroke-dasharray:none;stroke-opacity:1;opacity:0.2"
       d="m 15.054122,11.193802 c -0.332035,8.506402 -0.345618,16.950226 0,25.323462 0.851059,7.012748 4.43277,6.241764 8.945762,6.239478 4.458028,-0.0022 8.120013,0.902797 8.945761,-6.098222 0.343703,-8.420697 0.333977,-16.910848 0,-25.464718 -1.043517,-4.996871 -4.797585,-5.9691148 -8.945761,-5.9929631 -4.094803,-0.023541 -8.02492,0.949081 -8.945762,5.9929631 z m 8.980292,-3.9200185 c -1.683334,0.00303 -3.379167,0.5157394 -4.8375,1.5296875 3.25521,1.341e-4 6.228738,0.034398 9.6,0 -1.408333,-1.0260795 -3.079166,-1.5327204 -4.7625,-1.5296875 z m -5.2375,9.1296885 a 0.8,0.8 0 0 0 -0.8,0.8 0.8,0.8 0 0 0 0.8,0.8 h 10.4 a 0.8,0.8 0 0 0 0.8,-0.8 0.8,0.8 0 0 0 -0.8,-0.8 z m 0,3.6 a 0.8,0.8 0 0 0 -0.8,0.8 0.8,0.8 0 0 0 0.8,0.8 h 10.4 a 0.8,0.8 0 0 0 0.8,-0.8 0.8,0.8 0 0 0 -0.8,-0.8 z m 5.2,9.2 a 2,2 0 0 0 -2,2 2,2 0 0 0 2,2 2,2 0 0 0 2,-2 2,2 0 0 0 -2,-2 z m -0.0062,10.76875 c -1.559201,-0.002 -3.116155,0.0062 -4.79376,0.03125 1.405043,0.976897 2.725869,1.17488 4.8,1.2 2.044344,0.02476 3.340204,-0.136426 4.8,-1.2 -1.685631,-0.0172 -3.24706,-0.02928 -4.80625,-0.03125 z"
       inkscape:connector-curvature="0" />
    <path
       style="opacity:0.2;fill:#000000;fill-opacity:1;stroke:none;stroke-width:0.80000001;stroke-linecap:round;stroke-linejoin:round;stroke-miterlimit:4;stroke-dasharray:none;stroke-opacity:1"
       d="m 23.996914,24.003472 a 0.8,0.8 0 0 0 -0.8,0.8 0.8,0.8 0 0 0 0.8,0.8 0.8,0.8 0 0 0 0.8,-0.8 0.8,0.8 0 0 0 -0.8,-0.8 z m 0,2.4 a 0.4,0.4 0 0 0 -0.4,0.4 0.4,0.4 0 0 0 0.4,0.4 0.4,0.4 0 0 0 0.4,-0.4 0.4,0.4 0 0 0 -0.4,-0.4 z m 0,4 a 0.8,0.8 0 0 0 -0.8,0.8 0.8,0.8 0 0 0 0.8,0.8 0.8,0.8 0 0 0 0.8,-0.8 0.8,0.8 0 0 0 -0.8,-0.8 z"
       id="path5120"
       inkscape:connector-curvature="0" />
  </g>
</svg>
