<?xml version="1.0" encoding="UTF-8" standalone="no"?>
<!-- Created with Inkscape (http://www.inkscape.org/) -->

<svg
   xmlns:dc="http://purl.org/dc/elements/1.1/"
   xmlns:cc="http://creativecommons.org/ns#"
   xmlns:rdf="http://www.w3.org/1999/02/22-rdf-syntax-ns#"
   xmlns:svg="http://www.w3.org/2000/svg"
   xmlns="http://www.w3.org/2000/svg"
   xmlns:sodipodi="http://sodipodi.sourceforge.net/DTD/sodipodi-0.dtd"
   xmlns:inkscape="http://www.inkscape.org/namespaces/inkscape"
   width="48"
   height="48"
   viewBox="0 0 12.7 12.7"
   version="1.1"
   id="svg4544"
   inkscape:version="0.92.1 r"
   sodipodi:docname="viking-symbolic.svg">
  <defs
     id="defs4538">
    <clipPath
       clipPathUnits="userSpaceOnUse"
       id="clipPath5276">
      <rect
         style="opacity:0.5;fill:#000000;fill-opacity:1;stroke-width:0.6045025"
         id="rect5278"
         width="6.3499999"
         height="12.7"
         x="4.1359031e-25"
         y="7.6293946e-07"
         transform="rotate(-0.2)" />
    </clipPath>
  </defs>
  <sodipodi:namedview
     id="base"
     pagecolor="#ffffff"
     bordercolor="#666666"
     borderopacity="1.0"
     inkscape:pageopacity="0.0"
     inkscape:pageshadow="2"
     inkscape:zoom="7.8645833"
     inkscape:cx="14.986592"
     inkscape:cy="19.878742"
     inkscape:document-units="px"
     inkscape:current-layer="layer2"
     showgrid="false"
     units="px"
     inkscape:window-width="1680"
     inkscape:window-height="986"
     inkscape:window-x="1280"
     inkscape:window-y="27"
     inkscape:window-maximized="1"
     inkscape:pagecheckerboard="false"
     inkscape:snap-global="false"
     scale-x="0.26458" />
  <metadata
     id="metadata4541">
    <rdf:RDF>
      <cc:Work
         rdf:about="">
        <dc:format>image/svg+xml</dc:format>
        <dc:type
           rdf:resource="http://purl.org/dc/dcmitype/StillImage" />
        <dc:title />
      </cc:Work>
    </rdf:RDF>
  </metadata>
  <g
     inkscape:groupmode="layer"
     id="layer2"
     inkscape:label="Layer 0"
     style="display:inline;opacity:1">
    <a
       id="a5368"
       style="opacity:1;stroke-width:0.13500001;stroke-linejoin:round;stroke-miterlimit:4;stroke-dasharray:none;fill:#000000;stroke:#000000;stroke-opacity:1" />
    <path
       id="path4487"
       style="opacity:1;fill:#000000;fill-opacity:1;stroke:#000000;stroke-width:0.13429475;stroke-linecap:butt;stroke-linejoin:round;stroke-miterlimit:4;stroke-dasharray:none;stroke-opacity:1"
       d="m 10.973374,6.5954361 0.219287,0.1725854 C 11.582925,7.8383148 10.681909,13.77327 8.7703255,12.253038 9.2067394,11.648583 10.419954,10.519387 10.491376,8.8752181 10.752902,8.3952187 10.991705,8.0193003 10.973378,6.5954361 Z M 6.3096922,3.1781006 C 4.6962607,3.2941281 2.3414791,3.6632522 1.6257405,4.7371785 1.5360876,5.3095098 1.4981291,5.7853246 1.5828491,6.4032267 c 4.6593757,-2.879499 4.082221,0.017392 3.5289834,3.7801313 -0.1520748,1.048908 0.6776979,1.512546 0.9901205,1.794722 0.053619,0.04842 0.1036617,0.05212 0.2072225,0.06253 h 0.1343589 c 0.1035608,-0.0104 0.1536035,-0.0141 0.2072224,-0.06253 0.3124219,-0.282183 1.1427116,-0.745812 0.990637,-1.794722 C 7.0881578,6.4206193 6.5110121,3.5237277 11.170377,6.4032267 11.255095,5.7853246 11.217138,5.3095098 11.127486,4.7371785 10.411748,3.6632522 8.0569619,3.2941278 6.4435344,3.1781006 Z M 10.566973,2.8311087 c 0.249403,0.444375 0.430337,0.8985906 0.50023,1.427189 C 10.571099,3.8387601 9.8867428,3.5563507 9.2635855,3.3690174 9.5357726,3.1765001 9.9269722,2.9620769 10.566973,2.8311087 Z M 8.932243,1.2757723 c 0.6918399,0.3736245 1.143315,0.830471 1.487289,1.3315953 C 9.4306964,2.8065277 9.3346894,3.0386555 8.8882791,3.2579219 8.468474,3.1540312 8.1276623,3.1008114 7.7366224,3.0465823 7.7346511,2.564187 7.7408762,2.0930756 7.7205409,1.6617646 8.0602237,1.4880234 8.4115712,1.3407914 8.932243,1.2757723 Z M 7.6261742,0.67740675 C 8.0009263,0.80099356 8.3385329,0.93609195 8.6421846,1.0825177 8.2100715,1.1667369 7.8684963,1.284278 7.6813983,1.3853173 7.6660119,1.1724452 7.6540805,0.90524353 7.6261711,0.67740673 Z M 1.7795001,6.5954362 1.5602126,6.7680215 C 1.1699508,7.8383148 2.070968,13.77327 3.9825565,12.253037 3.5461416,11.648583 2.3329246,10.519387 2.2615016,8.875218 1.9999756,8.3952188 1.7611713,8.0193003 1.7795001,6.5954362 Z M 2.7750243,5.9960163 C 2.5517642,6.1170676 2.3795664,6.1882165 2.0753255,6.4171792 2.0926602,9.9280582 3.749667,9.597542 4.8038411,10.035563 4.9780557,9.1181265 5.0864711,8.2012286 5.1443887,7.2837931 4.1884023,7.0532431 3.1419699,6.6632817 2.7750243,5.9960163 Z m 7.2026613,0 C 9.6107421,6.6632817 8.5643047,7.0532434 7.6083209,7.2837931 7.6662385,8.2012286 7.7746547,9.1181252 7.9488688,10.035563 9.0030402,9.5975407 10.660049,9.9280585 10.677384,6.4171792 10.373144,6.1882165 10.200945,6.1170676 9.9776856,5.9960163 Z M 2.1859047,2.8311088 C 1.936502,3.2754838 1.7555666,3.7296994 1.6856729,4.2582977 2.1817785,3.8387601 2.8661373,3.5563507 3.4892957,3.3690174 3.2171081,3.1765001 2.8259074,2.962077 2.1859047,2.8311088 Z M 3.8206387,1.2757724 C 3.1287974,1.6493969 2.6773218,2.1062433 2.3333469,2.6073676 3.322184,2.8065277 3.4181912,3.0386555 3.8646026,3.2579219 4.284409,3.1540312 4.6252214,3.1008114 5.0162625,3.0465822 5.0182338,2.5641871 5.0120085,2.0930756 5.0323439,1.6617646 4.6926602,1.4880233 4.3413119,1.3407914 3.8206387,1.2757724 Z M 5.1267108,0.67740717 C 4.7519577,0.80099397 4.4143504,0.93609239 4.1106976,1.0825182 4.5428121,1.166737 4.8843881,1.2842785 5.0714866,1.3853177 5.0868727,1.1724456 5.0988049,0.90524392 5.1267129,0.67740713 Z M 6.2569825,0.19947103 C 5.9695849,0.21893515 5.6793378,0.34907804 5.4291258,0.46612143 5.333425,1.3653807 5.2833449,2.119161 5.3004516,3.0184203 5.6787113,2.979893 5.935799,2.9536667 6.2569825,2.922819 Z m 0.2387449,0 V 2.922819 c 0.3211827,0.030848 0.578272,0.057075 0.9565309,0.095601 C 7.4693647,2.119161 7.4192854,1.3653811 7.323584,0.46612143 7.0733726,0.34907807 6.7831249,0.21893516 6.4957274,0.19947103 Z" />
  </g>
</svg>
